<?xml version="1.0" standalone="no"?>
<!DOCTYPE svg PUBLIC "-//W3C//DTD SVG 20010904//EN"
 "http://www.w3.org/TR/2001/REC-SVG-20010904/DTD/svg10.dtd">
<svg version="1.0" xmlns="http://www.w3.org/2000/svg"
 width="72.000000pt" height="72.000000pt" viewBox="0 0 72.000000 72.000000"
 preserveAspectRatio="xMidYMid meet">

<g transform="translate(0.000000,72.000000) scale(0.100000,-0.100000)"
fill="#000000" stroke="none">
<path d="M105 696 c-37 -16 -70 -52 -84 -89 -18 -46 -14 -456 4 -500 18 -43
66 -84 108 -92 18 -4 132 -5 254 -3 243 3 247 4 297 72 20 26 21 41 21 276 0
239 -1 250 -22 277 -11 15 -26 27 -33 25 -6 -1 -9 2 -5 7 3 6 -11 17 -31 26
-49 20 -463 21 -509 1z m341 -108 c-6 -35 -56 -88 -81 -88 -37 0 -4 79 44 105
39 21 44 18 37 -17z m-118 -93 c13 -4 45 -1 71 6 39 10 55 10 80 0 45 -19 57
-37 37 -57 -43 -43 -43 -92 0 -139 29 -32 26 -52 -18 -107 -31 -39 -55 -46
-100 -29 -15 6 -42 5 -71 -2 -42 -9 -51 -8 -74 9 -37 28 -73 104 -80 168 -8
76 15 129 66 150 35 14 42 15 89 1z"/>
</g>
</svg>
